<svg width="96" height="60" viewBox="0 0 96 60" fill="none" xmlns="http://www.w3.org/2000/svg">
<rect width="92" height="60" rx="15" fill="#FF0000"/>
<path d="M15.72 17.69C15.68 17.97 15.63 18.27 15.57 18.59C15.51 18.89 15.45 19.19 15.39 19.49C15.31 19.83 15.22 20.31 15.12 20.93C15.02 21.55 14.9 22.21 14.76 22.91C14.64 23.59 14.51 24.25 14.37 24.89C14.15 25.73 13.89 26.69 13.59 27.77C13.31 28.83 12.97 29.97 12.57 31.19C12.19 32.39 11.76 33.62 11.28 34.88C10.8 36.12 10.27 37.35 9.69 38.57C9.11 39.79 8.48 40.95 7.8 42.05L5.37 41.06C6.05 40.16 6.69 39.14 7.29 38C7.89 36.86 8.44 35.68 8.94 34.46C9.44 33.22 9.89 32 10.29 30.8C10.69 29.6 11.03 28.49 11.31 27.47C11.61 26.43 11.84 25.54 12 24.8C12.28 23.62 12.51 22.38 12.69 21.08C12.87 19.78 12.96 18.56 12.96 17.42L15.72 17.69ZM26.04 21.17C26.52 21.77 27.02 22.53 27.54 23.45C28.08 24.37 28.6 25.34 29.1 26.36C29.62 27.38 30.09 28.37 30.51 29.33C30.95 30.29 31.29 31.12 31.53 31.82L29.22 32.93C29 32.15 28.69 31.27 28.29 30.29C27.91 29.31 27.47 28.32 26.97 27.32C26.49 26.3 25.98 25.34 25.44 24.44C24.92 23.52 24.39 22.76 23.85 22.16L26.04 21.17ZM4.92 24.29C5.4 24.31 5.85 24.32 6.27 24.32C6.69 24.32 7.14 24.31 7.62 24.29C8.06 24.27 8.63 24.24 9.33 24.2C10.05 24.14 10.82 24.08 11.64 24.02C12.46 23.94 13.28 23.87 14.1 23.81C14.92 23.73 15.67 23.67 16.35 23.63C17.03 23.57 17.57 23.54 17.97 23.54C18.87 23.54 19.68 23.69 20.4 23.99C21.14 24.27 21.73 24.78 22.17 25.52C22.63 26.24 22.86 27.28 22.86 28.64C22.86 29.82 22.8 31.1 22.68 32.48C22.56 33.84 22.37 35.14 22.11 36.38C21.87 37.6 21.54 38.63 21.12 39.47C20.66 40.47 20.06 41.13 19.32 41.45C18.58 41.79 17.72 41.96 16.74 41.96C16.16 41.96 15.54 41.91 14.88 41.81C14.24 41.73 13.68 41.64 13.2 41.54L12.81 39.02C13.23 39.16 13.67 39.28 14.13 39.38C14.59 39.46 15.03 39.53 15.45 39.59C15.87 39.63 16.21 39.65 16.47 39.65C17.03 39.65 17.53 39.56 17.97 39.38C18.41 39.18 18.79 38.75 19.11 38.09C19.43 37.41 19.69 36.56 19.89 35.54C20.11 34.52 20.27 33.43 20.37 32.27C20.47 31.11 20.52 29.99 20.52 28.91C20.52 27.99 20.39 27.3 20.13 26.84C19.87 26.38 19.5 26.07 19.02 25.91C18.54 25.75 17.98 25.67 17.34 25.67C16.84 25.67 16.16 25.71 15.3 25.79C14.44 25.85 13.52 25.93 12.54 26.03C11.56 26.11 10.65 26.2 9.81 26.3C8.99 26.4 8.35 26.47 7.89 26.51C7.53 26.55 7.08 26.61 6.54 26.69C6.02 26.75 5.57 26.81 5.19 26.87L4.92 24.29ZM26.4 16.82C26.66 17.16 26.93 17.58 27.21 18.08C27.51 18.56 27.81 19.06 28.11 19.58C28.41 20.08 28.66 20.53 28.86 20.93L27.21 21.65C27.03 21.25 26.8 20.8 26.52 20.3C26.24 19.8 25.95 19.3 25.65 18.8C25.35 18.3 25.06 17.86 24.78 17.48L26.4 16.82ZM29.7 15.59C29.96 15.97 30.25 16.41 30.57 16.91C30.89 17.41 31.2 17.91 31.5 18.41C31.8 18.89 32.04 19.32 32.22 19.7L30.6 20.42C30.28 19.76 29.89 19.05 29.43 18.29C28.97 17.51 28.53 16.84 28.11 16.28L29.7 15.59Z" fill="white"/>
<path d="M66.6797 43.293C65.5957 43.293 64.6191 43.0244 63.75 42.4873C62.8711 41.9502 62.1631 41.2275 61.626 40.3193C61.0986 39.4111 60.835 38.3955 60.835 37.2725V27.7656C60.835 26.6719 61.1035 25.6758 61.6406 24.7773C62.168 23.8691 62.876 23.1465 63.7646 22.6094C64.6533 22.0625 65.625 21.7891 66.6797 21.7891C67.7832 21.7891 68.7793 22.0527 69.668 22.5801C70.5566 23.1172 71.2598 23.835 71.7773 24.7334C72.3047 25.6318 72.5684 26.6426 72.5684 27.7656V29.1426C72.5684 29.2207 72.5195 29.2598 72.4219 29.2598H69.0527C68.9746 29.2598 68.9355 29.2207 68.9355 29.1426V28C68.9355 27.2383 68.7207 26.6084 68.291 26.1104C67.8613 25.6123 67.3242 25.3633 66.6797 25.3633C66.1035 25.3633 65.5908 25.6025 65.1416 26.0811C64.6924 26.5596 64.4678 27.1211 64.4678 27.7656V37.2725C64.4678 37.9268 64.6875 38.4932 65.127 38.9717C65.5664 39.4404 66.084 39.6748 66.6797 39.6748C67.3242 39.6748 67.8613 39.4453 68.291 38.9863C68.7207 38.5176 68.9355 37.9463 68.9355 37.2725V35.793H66.8408C66.7334 35.793 66.6797 35.7441 66.6797 35.6465V32.292C66.6797 32.1943 66.7334 32.1455 66.8408 32.1455H72.4512C72.5293 32.1455 72.5684 32.1943 72.5684 32.292V37.2725C72.5684 38.3955 72.3047 39.4111 71.7773 40.3193C71.2402 41.2275 70.5322 41.9502 69.6533 42.4873C68.7744 43.0244 67.7832 43.293 66.6797 43.293ZM73.6816 42.8535L77.4023 22.2432C77.4219 22.165 77.4707 22.126 77.5488 22.126H81.8994C81.9775 22.126 82.0264 22.165 82.0459 22.2432L85.6201 42.8535C85.6299 42.9512 85.5908 43 85.5029 43H82.1777C82.0801 43 82.0264 42.9512 82.0166 42.8535L81.6943 40.6562H77.6074L77.2852 42.8535C77.2754 42.9512 77.2266 43 77.1387 43H73.7988C73.7207 43 73.6816 42.9512 73.6816 42.8535ZM79.5557 29.0254L78.208 37.4482H81.0938L79.8633 29.0254L79.6875 27.9121L79.5557 29.0254Z" fill="white"/>
<path d="M39.0417 19.625L55.9583 30.5L39.0417 41.375V19.625Z" stroke="white" stroke-width="4" stroke-linecap="round" stroke-linejoin="round"/>
</svg>
