<svg width="96" height="60" viewBox="0 0 96 60" fill="none" xmlns="http://www.w3.org/2000/svg">
<rect width="92" height="60" rx="15" fill="black" fill-opacity="0.5"/>
<path d="M14.72 17.69C14.68 17.97 14.63 18.27 14.57 18.59C14.51 18.89 14.45 19.19 14.39 19.49C14.31 19.83 14.22 20.31 14.12 20.93C14.02 21.55 13.9 22.21 13.76 22.91C13.64 23.59 13.51 24.25 13.37 24.89C13.15 25.73 12.89 26.69 12.59 27.77C12.31 28.83 11.97 29.97 11.57 31.19C11.19 32.39 10.76 33.62 10.28 34.88C9.8 36.12 9.27 37.35 8.69 38.57C8.11 39.79 7.48 40.95 6.8 42.05L4.37 41.06C5.05 40.16 5.69 39.14 6.29 38C6.89 36.86 7.44 35.68 7.94 34.46C8.44 33.22 8.89 32 9.29 30.8C9.69 29.6 10.03 28.49 10.31 27.47C10.61 26.43 10.84 25.54 11 24.8C11.28 23.62 11.51 22.38 11.69 21.08C11.87 19.78 11.96 18.56 11.96 17.42L14.72 17.69ZM25.04 21.17C25.52 21.77 26.02 22.53 26.54 23.45C27.08 24.37 27.6 25.34 28.1 26.36C28.62 27.38 29.09 28.37 29.51 29.33C29.95 30.29 30.29 31.12 30.53 31.82L28.22 32.93C28 32.15 27.69 31.27 27.29 30.29C26.91 29.31 26.47 28.32 25.97 27.32C25.49 26.3 24.98 25.34 24.44 24.44C23.92 23.52 23.39 22.76 22.85 22.16L25.04 21.17ZM3.92 24.29C4.4 24.31 4.85 24.32 5.27 24.32C5.69 24.32 6.14 24.31 6.62 24.29C7.06 24.27 7.63 24.24 8.33 24.2C9.05 24.14 9.82 24.08 10.64 24.02C11.46 23.94 12.28 23.87 13.1 23.81C13.92 23.73 14.67 23.67 15.35 23.63C16.03 23.57 16.57 23.54 16.97 23.54C17.87 23.54 18.68 23.69 19.4 23.99C20.14 24.27 20.73 24.78 21.17 25.52C21.63 26.24 21.86 27.28 21.86 28.64C21.86 29.82 21.8 31.1 21.68 32.48C21.56 33.84 21.37 35.14 21.11 36.38C20.87 37.6 20.54 38.63 20.12 39.47C19.66 40.47 19.06 41.13 18.32 41.45C17.58 41.79 16.72 41.96 15.74 41.96C15.16 41.96 14.54 41.91 13.88 41.81C13.24 41.73 12.68 41.64 12.2 41.54L11.81 39.02C12.23 39.16 12.67 39.28 13.13 39.38C13.59 39.46 14.03 39.53 14.45 39.59C14.87 39.63 15.21 39.65 15.47 39.65C16.03 39.65 16.53 39.56 16.97 39.38C17.41 39.18 17.79 38.75 18.11 38.09C18.43 37.41 18.69 36.56 18.89 35.54C19.11 34.52 19.27 33.43 19.37 32.27C19.47 31.11 19.52 29.99 19.52 28.91C19.52 27.99 19.39 27.3 19.13 26.84C18.87 26.38 18.5 26.07 18.02 25.91C17.54 25.75 16.98 25.67 16.34 25.67C15.84 25.67 15.16 25.71 14.3 25.79C13.44 25.85 12.52 25.93 11.54 26.03C10.56 26.11 9.65 26.2 8.81 26.3C7.99 26.4 7.35 26.47 6.89 26.51C6.53 26.55 6.08 26.61 5.54 26.69C5.02 26.75 4.57 26.81 4.19 26.87L3.92 24.29ZM25.4 16.82C25.66 17.16 25.93 17.58 26.21 18.08C26.51 18.56 26.81 19.06 27.11 19.58C27.41 20.08 27.66 20.53 27.86 20.93L26.21 21.65C26.03 21.25 25.8 20.8 25.52 20.3C25.24 19.8 24.95 19.3 24.65 18.8C24.35 18.3 24.06 17.86 23.78 17.48L25.4 16.82ZM28.7 15.59C28.96 15.97 29.25 16.41 29.57 16.91C29.89 17.41 30.2 17.91 30.5 18.41C30.8 18.89 31.04 19.32 31.22 19.7L29.6 20.42C29.28 19.76 28.89 19.05 28.43 18.29C27.97 17.51 27.53 16.84 27.11 16.28L28.7 15.59Z" fill="black" fill-opacity="0.1"/>
<path d="M69.6797 43.293C68.5957 43.293 67.6191 43.0244 66.75 42.4873C65.8711 41.9502 65.1631 41.2275 64.626 40.3193C64.0986 39.4111 63.835 38.3955 63.835 37.2725V27.7656C63.835 26.6719 64.1035 25.6758 64.6406 24.7773C65.168 23.8691 65.876 23.1465 66.7646 22.6094C67.6533 22.0625 68.625 21.7891 69.6797 21.7891C70.7832 21.7891 71.7793 22.0527 72.668 22.5801C73.5566 23.1172 74.2598 23.835 74.7773 24.7334C75.3047 25.6318 75.5684 26.6426 75.5684 27.7656V29.1426C75.5684 29.2207 75.5195 29.2598 75.4219 29.2598H72.0527C71.9746 29.2598 71.9355 29.2207 71.9355 29.1426V28C71.9355 27.2383 71.7207 26.6084 71.291 26.1104C70.8613 25.6123 70.3242 25.3633 69.6797 25.3633C69.1035 25.3633 68.5908 25.6025 68.1416 26.0811C67.6924 26.5596 67.4678 27.1211 67.4678 27.7656V37.2725C67.4678 37.9268 67.6875 38.4932 68.127 38.9717C68.5664 39.4404 69.084 39.6748 69.6797 39.6748C70.3242 39.6748 70.8613 39.4453 71.291 38.9863C71.7207 38.5176 71.9355 37.9463 71.9355 37.2725V35.793H69.8408C69.7334 35.793 69.6797 35.7441 69.6797 35.6465V32.292C69.6797 32.1943 69.7334 32.1455 69.8408 32.1455H75.4512C75.5293 32.1455 75.5684 32.1943 75.5684 32.292V37.2725C75.5684 38.3955 75.3047 39.4111 74.7773 40.3193C74.2402 41.2275 73.5322 41.9502 72.6533 42.4873C71.7744 43.0244 70.7832 43.293 69.6797 43.293ZM76.6816 42.8535L80.4023 22.2432C80.4219 22.165 80.4707 22.126 80.5488 22.126H84.8994C84.9775 22.126 85.0264 22.165 85.0459 22.2432L88.6201 42.8535C88.6299 42.9512 88.5908 43 88.5029 43H85.1777C85.0801 43 85.0264 42.9512 85.0166 42.8535L84.6943 40.6562H80.6074L80.2852 42.8535C80.2754 42.9512 80.2266 43 80.1387 43H76.7988C76.7207 43 76.6816 42.9512 76.6816 42.8535ZM82.5557 29.0254L81.208 37.4482H84.0938L82.8633 29.0254L82.6875 27.9121L82.5557 29.0254Z" fill="black" fill-opacity="0.1"/>
<path d="M40.4583 19.625L58.5417 30.5L40.4583 41.375V19.625Z" stroke="black" stroke-opacity="0.1" stroke-width="4" stroke-linecap="round" stroke-linejoin="round"/>
</svg>
